<mxfile host="app.diagrams.net" modified="2023-09-05T12:09:36.730Z" agent="Mozilla/5.0 (Windows NT 10.0; Win64; x64) AppleWebKit/537.36 (KHTML, like Gecko) Chrome/116.0.0.0 Safari/537.36 Edg/116.0.1938.69" version="21.6.8" etag="6KdwWxeRwkkb_Miq5IgS" type="github">
  <diagram name="第 1 页" id="roPZ449s8YMuSNZIOXLy">
    <mxGraphModel>
      <root>
        <mxCell id="0" />
        <mxCell id="1" parent="0" />
      </root>
    </mxGraphModel>
  </diagram>
</mxfile>
